Coordinates
version=1
nRows=8
nColumns=63
inDegrees=yes

Units are S.I. units (second, meters, Newtons, ...)
If the header above contains a line with 'inDegrees', this indicates whether rotational values are in degrees (yes) or radians (no).

endheader
time	pelvis_tilt	pelvis_list	pelvis_rotation	pelvis_tx	pelvis_ty	pelvis_tz	hip_flexion_r	hip_adduction_r	hip_rotation_r	knee_angle_r	knee_angle_r_beta	ankle_angle_r	subtalar_angle_r	mtp_angle_r	hip_flexion_l	hip_adduction_l	hip_rotation_l	knee_angle_l	knee_angle_l_beta	ankle_angle_l	subtalar_angle_l	mtp_angle_l	L5_S1_Flex_Ext	L5_S1_Lat_Bending	L5_S1_axial_rotation	L4_L5_Flex_Ext	L4_L5_Lat_Bending	L4_L5_axial_rotation	L3_L4_Flex_Ext	L3_L4_Lat_Bending	L3_L4_axial_rotation	L2_L3_Flex_Ext	L2_L3_Lat_Bending	L2_L3_axial_rotation	L1_L2_Flex_Ext	L1_L2_Lat_Bending	L1_L2_axial_rotation	L1_T12_Flex_Ext	L1_T12_Lat_Bending	L1_T12_axial_rotation	Abs_r3	Abs_r2	Abs_r1	Abs_t1	Abs_t2	neck_flexion	neck_bending	neck_rotation	arm_flex_r	arm_add_r	arm_rot_r	elbow_flex_r	pro_sup_r	wrist_flex_r	wrist_dev_r	arm_flex_l	arm_add_l	arm_rot_l	elbow_flex_l	pro_sup_l	wrist_flex_l	wrist_dev_l
1.783333	0.634567	-3.879436	98.782787	0.257258	0.665634	0.942532	3.594489	-1.260133	-5.322843	4.057678	0.070820	20.888029	11.749190	0.000000	4.450329	-0.702135	-2.200335	4.481286	0.078213	21.759577	6.353556	0.000000	0.019661	-0.100177	1.666221	0.036512	-0.133235	1.770360	0.032301	-0.243570	1.770360	0.022470	-0.243570	1.457943	0.018257	-0.204281	1.353804	0.011234	-0.155174	1.249666	0.140435	-1.133220	9.267021	0.000000	0.000000	27.002096	0.700604	-1.236071	11.887546	-5.049325	56.608389	34.980035	78.523683	8.302490	3.269494	23.809833	-3.485247	91.199836	39.028781	21.699469	-8.708117	-3.124973
1.800000	0.650550	-3.848193	98.873850	0.256917	0.665740	0.942476	3.647682	-1.287227	-5.845455	4.282065	0.074736	21.041280	12.304654	0.000000	4.497337	-0.743875	-2.879848	4.663509	0.081394	22.016514	7.137062	0.000000	0.020441	-0.103006	1.676003	0.037961	-0.136998	1.780753	0.033583	-0.250448	1.780753	0.023362	-0.250448	1.466503	0.018982	-0.210049	1.361753	0.011680	-0.159556	1.257002	0.146010	-1.165221	9.321427	0.000000	0.000000	26.954184	0.495133	-1.577780	12.075247	-5.096910	57.574048	34.914943	81.245553	7.059513	2.100431	23.935692	-3.449324	91.211295	38.937425	22.750636	-8.499071	-2.101926
1.816667	0.652999	-3.816669	98.918564	0.256676	0.665817	0.942469	3.699297	-1.319039	-6.191474	4.486370	0.078302	21.173286	12.678764	0.000000	4.557045	-0.783704	-3.637588	4.884483	0.085250	22.287864	7.963426	0.000000	0.022653	-0.107684	1.693249	0.042068	-0.143219	1.799077	0.037216	-0.261822	1.799077	0.025890	-0.261822	1.481593	0.021035	-0.219589	1.375765	0.012944	-0.166802	1.269937	0.161806	-1.218140	9.417344	0.000000	0.000000	26.926606	0.277038	-1.961153	12.297511	-5.139880	58.636345	34.836604	83.628041	5.739868	1.075143	24.099524	-3.420188	91.320622	38.860041	23.521112	-8.226917	-1.075386
1.833333	0.643988	-3.798793	98.929231	0.256520	0.665858	0.942555	3.769177	-1.359358	-6.450234	4.676982	0.081629	21.303358	12.983174	0.000000	4.655826	-0.823831	-4.491574	5.158907	0.090040	22.574458	8.882444	0.000000	0.026861	-0.113946	1.713574	0.049884	-0.151548	1.820673	0.044130	-0.277048	1.820673	0.030700	-0.277048	1.499378	0.024943	-0.232358	1.392279	0.015349	-0.176502	1.285181	0.191868	-1.288977	9.530387	0.000000	0.000000	26.921455	0.071314	-2.352206	12.559865	-5.170531	59.815668	34.712117	85.553921	4.403440	0.117634	24.263582	-3.403159	91.404808	38.793358	24.193674	-7.926062	-0.068106
1.850000	0.622050	-3.783002	98.890239	0.256445	0.665871	0.942733	3.836481	-1.401377	-6.499358	4.830726	0.084312	21.415394	13.084357	0.000000	4.769721	-0.853164	-5.324058	5.462237	0.095334	22.863814	9.744495	0.000000	0.030277	-0.121141	1.736579	0.056228	-0.161118	1.845115	0.049742	-0.294543	1.845115	0.034604	-0.294543	1.519506	0.028115	-0.247031	1.410970	0.017300	-0.187648	1.302434	0.216266	-1.370375	9.658329	0.000000	0.000000	26.937617	-0.118646	-2.730645	12.882624	-5.209911	61.215627	34.597880	86.875858	2.992951	-0.715136	24.392721	-3.413402	91.272174	38.745254	25.179533	-7.624510	1.058513
1.866667	0.590634	-3.783255	98.831533	0.256403	0.665843	0.943063	3.926806	-1.453048	-6.511609	4.969392	0.086732	21.540931	13.174747	0.000000	4.927885	-0.871169	-6.034736	5.805589	0.101327	23.134429	10.453108	0.000000	0.033881	-0.128899	1.759428	0.062920	-0.171436	1.869393	0.055663	-0.313406	1.869393	0.038722	-0.313406	1.539500	0.031462	-0.262851	1.429536	0.019359	-0.199665	1.319571	0.242007	-1.458135	9.785413	0.000000	0.000000	26.971037	-0.294269	-3.083141	13.226612	-5.258737	62.668716	34.485893	87.546328	1.690507	-1.432573	24.569843	-3.415275	91.338001	38.719927	25.528407	-7.302679	1.890447
1.883333	0.544299	-3.796955	98.734600	0.256407	0.665774	0.943537	4.031121	-1.514309	-6.364993	5.077167	0.088613	21.657268	13.122904	0.000000	5.121378	-0.871631	-6.675431	6.175316	0.107780	23.406107	11.072245	0.000000	0.036464	-0.137487	1.786675	0.067718	-0.182858	1.898342	0.059907	-0.334287	1.898342	0.041675	-0.334287	1.563340	0.033861	-0.280364	1.451673	0.020836	-0.212968	1.340006	0.260460	-1.555285	9.936948	0.000000	0.000000	27.018594	-0.465823	-3.411405	13.570473	-5.319053	64.116259	34.400540	87.374866	0.523340	-1.937610	24.729319	-3.413206	91.286689	38.687392	26.018191	-6.992241	2.712556
1.900000	0.490926	-3.835206	98.629994	0.256394	0.665650	0.944161	4.172553	-1.589736	-6.329767	5.184210	0.090482	21.821680	13.254927	0.000000	5.365183	-0.853193	-7.139810	6.564105	0.114565	23.656433	11.495978	0.000000	0.039650	-0.145658	1.814354	0.073634	-0.193726	1.927751	0.065141	-0.354154	1.927751	0.045316	-0.354154	1.587559	0.036819	-0.297026	1.474162	0.022656	-0.225625	1.360765	0.283216	-1.647716	10.090890	0.000000	0.000000	27.074383	-0.646227	-3.691660	13.863872	-5.372945	65.205244	34.323390	87.912387	-0.351997	-2.539983	24.913746	-3.380060	91.406511	38.646795	26.010169	-6.668836	3.173337
